<?xml version="1.0"?>
<svg width="78.308456" height="196.24057" xmlns="http://www.w3.org/2000/svg">

 <g>
  <title>background</title>
  <rect fill="none" id="canvas_background" height="402" width="582" y="-1" x="-1"/>
 </g>
 <g>
  <title>Layer 1</title>
  <g id="layer1">
   <path fill="#ff0000" id="path2472" d="m0,191.105316c0,-7.102234 1.217789,-9.190308 5.924835,-10.159058l1.66893,-0.343506l9.226196,-39.705261c5.074417,-21.83786 9.238937,-40.024414 9.254532,-40.414551c0.020538,-0.514343 -1.305176,-0.70932 -4.823212,-0.70932c-3.089127,0 -5.419556,-0.293732 -6.415222,-0.808624c-3.960037,-2.047821 -3.68158,-8.24704 0.447281,-9.957275l1.717987,-0.711609l-5.095947,-3.943817c-5.039215,-3.899933 -5.095947,-3.971466 -5.095947,-6.427155l0,-2.483337l10.17482,-7.836792l10.174805,-7.836792l-2.165253,-2.269806c-4.783081,-5.014038 -8.116699,-12.817261 -9.225235,-21.594025c-0.572083,-4.529541 -0.835022,-5.359985 -1.697067,-5.359985c-0.56105,0 -1.026749,-0.191498 -1.034897,-0.425568c-0.008133,-0.2341 -0.999146,-6.426422 -2.202255,-13.760742c-1.20311,-7.33432 -2.121307,-13.4104 -2.040451,-13.502411c0.080856,-0.09198 2.029449,2.261139 4.3302,5.229187c2.300766,2.968048 4.310883,5.401855 4.466934,5.408508c0.156036,0.006592 1.28302,-2.271973 2.504364,-5.063538c1.221344,-2.791534 2.41864,-4.953186 2.660614,-4.80365c0.242004,0.149567 1.268097,1.734802 2.280273,3.522797c1.012146,1.787964 2.449005,4.229889 3.192993,5.426483l1.352722,2.175659l3.085266,-4.432556c2.629791,-3.778137 3.035309,-4.698883 2.746857,-6.236511c-0.633972,-3.379364 3.048096,-5.439575 5.442474,-3.045197c1.266052,1.266083 1.419189,2.380676 0.550171,4.004456c-0.485382,0.906921 -0.039795,1.81662 2.622284,5.353516c1.763855,2.343475 3.381561,4.260895 3.594879,4.260895c0.213287,0 1.906006,-2.679749 3.761536,-5.954987c1.85553,-3.275238 3.522125,-5.956451 3.703522,-5.958252c0.181396,-0.001801 1.294525,2.434143 2.473602,5.413177l2.143768,5.416443l4.021027,-5.400269c2.211548,-2.970123 4.070221,-5.343689 4.130371,-5.274567c0.060181,0.069122 -0.924011,6.317993 -2.187073,13.886414c-1.429871,8.567963 -2.540283,13.760712 -2.942596,13.760712c-0.389832,0 -0.914673,2.126251 -1.32312,5.359985c-1.108521,8.776764 -4.442139,16.579987 -9.22522,21.594025l-2.165253,2.269806l10.174805,7.836792l10.174835,7.836792l0,2.483337c0,2.454224 -0.059296,2.529205 -5.055695,6.395966l-5.055664,3.912659l1.940125,0.701538c3.181427,1.150421 4.463409,4.746552 2.822998,7.918762c-1.173798,2.269836 -3.146606,2.919556 -8.864807,2.919556c-2.794189,0 -5.077393,0.191528 -5.073761,0.425598c0.003632,0.23407 4.294678,18.425934 9.535675,40.426361l9.529083,40.000793l1.955261,0.325195c4.931244,0.820007 6.211121,2.912231 6.211121,10.153748l0,5.135254l-39.154236,0l-39.154236,0l0,-5.135254z"/>
  </g>
 </g>
</svg>