<?xml version="1.0" encoding="UTF-8" standalone="no"?>
<!DOCTYPE svg PUBLIC "-//W3C//DTD SVG 1.0//EN"
	"http://www.w3.org/TR/2001/REC-SVG-20010904/DTD/svg10.dtd">
<!-- Created with Inkscape (http://www.inkscape.org/) -->
<svg
   xmlns:svg="http://www.w3.org/2000/svg"
   xmlns="http://www.w3.org/2000/svg"
   version="1.0"
   width="78.308456"
   height="196.24057"
   id="svg2433">
  <defs
     id="defs2435" />
  <g
     transform="translate(-236.16409,-372.21153)"
     id="layer1">
    <path
       d="M 236.16409,563.31683 C 236.16409,556.21459 237.38188,554.12654 242.08893,553.15778 L 243.75786,552.8143 L 252.98406,513.10902 C 258.05846,491.27114 262.223,473.08458 262.23858,472.69446 C 262.25913,472.18011 260.93342,471.98514 257.41539,471.98514 C 254.32625,471.98514 251.99582,471.6914 251.00015,471.17652 C 247.04011,469.1287 247.31858,462.92946 251.44743,461.21924 L 253.16542,460.50762 L 248.06948,456.5638 C 243.03026,452.66389 242.97353,452.59234 242.97353,450.13665 L 242.97353,447.65332 L 253.14835,439.81653 L 263.32316,431.97974 L 261.15791,429.70993 C 256.37483,424.6959 253.0412,416.89267 251.93267,408.11591 C 251.36058,403.58638 251.09764,402.75593 250.2356,402.75593 C 249.67454,402.75593 249.20885,402.56441 249.2007,402.33034 C 249.19257,402.09626 248.20155,395.90394 246.99844,388.56961 C 245.79534,381.23529 244.87713,375.1592 244.95799,375.0672 C 245.03885,374.97521 246.98744,377.32834 249.2882,380.29638 C 251.58896,383.26442 253.59907,385.69825 253.75512,385.70488 C 253.91117,385.7115 255.03814,383.43292 256.2595,380.64136 C 257.48085,377.84981 258.67813,375.68817 258.92011,375.83772 C 259.1621,375.98728 260.18821,377.57252 261.20037,379.3605 C 262.21253,381.14847 263.64939,383.5904 264.39337,384.787 L 265.74608,386.96265 L 268.83136,382.53009 C 271.46114,378.75195 271.86668,377.8312 271.57823,376.29359 C 270.94425,372.91422 274.6263,370.85401 277.02068,373.24839 C 278.28675,374.51446 278.43989,375.62905 277.57085,377.25285 C 277.08548,378.15977 277.53108,379.06947 280.19314,382.60634 C 281.95701,384.94984 283.5747,386.86725 283.78801,386.86725 C 284.00132,386.86725 285.69402,384.1875 287.54956,380.91226 C 289.4051,377.63701 291.07169,374.9558 291.25308,374.95401 C 291.43448,374.95221 292.5476,377.38815 293.72668,380.36719 L 295.87046,385.78362 L 299.89147,380.38337 C 302.10302,377.41323 303.9617,375.03967 304.02186,375.1088 C 304.08203,375.17792 303.09785,381.4268 301.83478,388.9952 C 300.4049,397.56316 299.29448,402.75593 298.89218,402.75593 C 298.50236,402.75593 297.9775,404.88216 297.56907,408.11591 C 296.46054,416.89267 293.12691,424.6959 288.34383,429.70993 L 286.17858,431.97974 L 296.35339,439.81653 L 306.52822,447.65332 L 306.52822,450.13665 C 306.52822,452.59087 306.46894,452.66586 301.47254,456.53263 L 296.41687,460.44528 L 298.357,461.14683 C 301.53841,462.29725 302.8204,465.89336 301.17998,469.06558 C 300.00621,471.33541 298.03338,471.98514 292.3152,471.98514 C 289.521,471.98514 287.2378,472.17666 287.24142,472.41073 C 287.24505,472.64481 291.53611,490.83668 296.77711,512.8371 L 306.30619,552.83791 L 308.26143,553.16306 C 313.19269,553.98308 314.47255,556.07534 314.47255,563.31683 L 314.47255,568.4521 L 275.31832,568.4521 L 236.16409,568.4521 L 236.16409,563.31683 z"
       id="path2472"
       style="fill:#000000" />
  </g>
</svg>
